<svg xmlns="http://www.w3.org/2000/svg" width="1472" height="832">
    <path fill="#151834" d="M710 95h54l31 4 20 4 30 9 27 11 17 9 10 5 16 10 17 12 17 14 10 9 22 22 9 11 11 14 9 14 11 18 9 17 11 27 6 18 6 23 5 29 2 22v41l-3 27-5 25-7 26-8 21-11 24-7 12-6 11-11 16-14 19-11 12-7 8-16 16-8 7-11 9-19 14-29 17-16 8-25 10-19 6-25 6-24 4-29 2h-21l-25-2-22-3-30-7-15-5-16-6-33-16-10-6-12-8-18-13-11-9-20-18-14-15-9-10-14-19-9-14-9-15-8-16-10-22-8-23-8-29-5-30-2-24v-24l2-26 3-20 6-26 5-17 8-22 11-24 11-20 14-21 13-17 13-15 18-18 8-7 12-10 18-13 19-12 23-12 21-9 19-7 26-7 24-4z"/><path fill="#FDFDFD" d="M723 243h28l27 1 47 4 33 4 23 4 4 2v173l-10 6-16 6-25 7-21 4-34 4-15 1h-47l-28-2-29-4-26-6-23-8-11-6-3-3V258l9-3 38-6 39-4z"/><path fill="#FCFCFC" d="M710 95h54l31 4 20 4 30 9 27 11 17 9 10 5 16 10 17 12 17 14 10 9 22 22 9 11 11 14 9 14 11 18 9 17 11 27 6 18 6 23 5 29 2 22v41l-3 27-5 25-7 26-8 21-11 24-7 12-6 11-11 16-14 19-11 12-7 8-16 16-8 7-11 9-19 14-29 17-16 8-25 10-19 6-25 6-24 4-29 2h-21l-25-2-22-3-30-7-15-5-16-6-33-16-10-6-12-8-18-13-11-9-20-18-14-15-9-10-14-19-9-14-9-15-8-16-10-22-8-23-8-29-5-30-2-24v-24l2-26 3-20 6-26 5-17 8-22 11-24 11-20 14-21 13-17 13-15 18-18 8-7 12-10 18-13 19-12 23-12 21-9 19-7 26-7 24-4zm10 19-27 3-29 6-20 6-19 7-18 8-20 11-21 14-12 9-14 12-13 12-8 8-7 8-12 15-12 17-11 19-11 21-11 28-7 24-5 23-3 23-1 18v18l2 27 4 24 6 24 7 21 11 26 12 23 14 22 11 14 11 13 3 4h2l2 4 7 7h2v2l8 7 10 9 17 13 15 10 21 12 16 8 23 9 19 6 24 5 18 3 12 1h44l27-3 29-6 20-6 19-7 18-8 22-12 10-7 14-10 16-13 13-12 12-12 7-8 12-14 13-18 11-19 11-21 10-25 5-15 7-28 4-26 1-13v-38l-3-29-7-32-10-30-12-26-12-22-14-20-7-9-14-17-18-18h-2v-2l-11-9-12-10-21-14-23-13-19-9-28-10-22-6-29-5-24-2z"/><path fill="#FDFDFD" d="M646 496h4l4 17 7 16 9 13 4 4v2h2l5 6 13 9 14 7 14 4 6 1h24l17-4 17-8 11-8 8-7 9-12 6-10 6-15 3-14 3-1 25 7 3 1-1 7-5 17-13 38-7 25-5 23-1 11 6 17 9 20 3 5v3l-16 6-25 7-27 5-17 2h-45l-30-4-21-5-27-9-4-4 5-7 10-24 3-9v-13l-5-25-9-31-15-43-4-11 9-4z"/><path fill="#CE622E" d="M720 114h33l24 2 29 5 25 7 25 9 25 12 22 13 17 12 22 18v2l4 2 19 19 16 20 9 13 9 14 10 18 9 19 9 24 6 21 5 24 3 29v38l-2 21-5 27-8 29-10 25-10 21-11 19-8 12-10 13-12 14-14 15-11 11-11 9-15 12-15 10-13 8-16 8-17 8-33 11-27 6-21 3-12 1h-44l-18-2-27-5-23-6-28-11-16-8-18-10-12-8-14-10-13-11-10-9-4-3v-2l-4-2-7-7v-2h-2l-9-11-10-12-12-17-11-19-11-21-10-25-7-21-6-26-3-19-2-27v-18l2-27 4-25 8-30 8-22 9-20 10-19 14-22 11-14 9-11 14-15 7-7 8-7 13-11 19-13 14-9 14-8 22-10 19-7 20-6 29-6zm4 14-30 3-25 5-29 9-27 12-24 13-16 11-13 10-14 12-19 19-18 22-10 15-9 15-8 16-8 17-8 22-7 26-4 24-2 24v26l3 31 5 25 8 27 10 24 8 16 11 20 11 16 13 16 9 10 5 6 8 7 13 12 14 11 15 11 21 12 23 11 21 8 16 5 25 5 15 2 13 1h39l27-3 25-5 21-6 25-10 21-10 19-12 11-8 9-7 14-12 13-12 10-10v-2h2l11-14 10-14 9-14 10-18 11-25 6-17 7-24 5-28 2-18v-40l-3-26-5-24-6-21-9-24-8-16-10-18-7-11-11-16-5-5-9-11-9-9-6-7-8-7-14-12-18-13-15-9-12-7-29-13-27-9-22-5-18-3-22-2z"/><path fill="#FDFDFD" d="M733 173h13l23 2 25 5 20 6 17 7 16 9 11 8 12 12 7 11 5 12 1 7-21-6-23-7-23-5-23-3-29-2h-55l-40 3-26 4-36 8-10 2 1-6 6-12 8-10 12-11 16-10 16-8 24-8 22-5 15-2z"/><path fill="#DD7830" d="m674 490 2 2 4 13 5 10 7 9 8 8 10 6 10 4 11 2h19l12-3 10-4 9-7 6-5 9-12 6-14 3-9 15 4 2 1-3 15-5 12-9 14-9 10-8 7-14 8-11 4-14 3h-19l-15-3-14-6-14-10-11-11-7-10-8-17-4-16 8-3z"/><path fill="#DF7930" d="m860 505 6 1 4 2-2 20-3 24-1 13v30l3 23 6 23 4 10-1 5-16 8-13 6-2-3-8-16-8-19-2-7 1-11 5-23 7-25 13-38z"/><path fill="#DE7930" d="m618 504 2 1 12 34 11 33 8 31 2 12v13l-7 19-7 15-4 6-4 1-16-8-10-6 1-5 6-17 4-18 2-13v-39l-4-31-4-20v-5z"/><path fill="#FDFDFD" d="M580 517h6v13l-2 16-6 17-9 16-8 10-11 11-6 4-4-1-12-12-10-13-8-11 1-4 9-11 10-10 13-10 14-8 13-5zM895 516l11 1 16 6 16 9 10 8 10 9 7 7 7 8-7 11-9 12-14 15-4 1-13-10-10-11-9-14-7-16-3-10-1-8z"/><path fill="#171934" d="m664 295 12 1 10 5 6 7 4 8 2 8v8l-3 10-6 8-8 6-9 3h-11l-10-3-9-7-4-5-3-9v-13l4-11 7-8 9-6zM808 296h16l8 4 6 5v2h2l5 9 2 9v8l-3 9-4 6-8 7-10 4h-13l-9-3-9-7-4-6-2-6-1-9 1-9 5-10 5-6 10-6z"/><path fill="#AB4A2D" d="m893 272 6 1 14 8 2 2 1 8v104l-6 5-14 8h-2l-1-53z"/><path fill="#E07B30" d="M584 272h4v135l-7-3-9-6-4-3-1-6V286l2-5z"/><path fill="#DF7A31" d="m894 273 7 1 12 7 2 2 1 8v47l-1 4h-15l-6-1z"/><path fill="#FDFDFD" d="M603 521h1l3 19 2 22v36l-3 20-6 21-4 8-2-1 1-113 1-7zM877 524l5 1 4 2 1 6 1 94 1 19-4-4-5-12-4-16-2-13-1-14v-13l2-32z"/><path fill="#DA7530" d="M560 288h1v99l-7-6-7-10-1-30v-37l12-14z"/><path fill="#DD7932" d="m922 291 3 1 9 11 1 1 1 40v25l-4 8-8 10h-1l-1-69z"/><path fill="#AB4A2D" d="m569 281 2 1-2 5v68l17 2 1-13h1v63l-7-3-9-6-4-3-1-6V286z"/><path fill="#FDFDFD" d="M586 575h1v57l-10-4-15-8-8-5 5-5 6-5 7-8 9-12zM895 575l2 3 10 16 7 8 11 9 3 2v2l-11 6-17 10-4 1-1-7zM715 497l11 2h26l12-2 1 2v13l-7 2-7 1h-25l-11-2z"/><path fill="#1C1A34" d="m778 392 4 2-1 5-7 6-15 6-10 2h-22l-15-4-10-5-6-5 1-5 5-1 8 5 10 4 12 2h12l16-3 9-4z"/><path fill="#FDFDFD" d="M762 473h2l1 11-9 3-8 1h-20l-11-2-1-1v-11l7 1 6 1h19l12-2zM763 522h2l1 2v6l-6 3-9 2h-23l-12-3-2-2v-7l8 1 6 1h21z"/><path fill="#CA612E" d="m664 295 12 1 10 5 6 7 3 6-1 2-6-7-10-5-4-1h-10l-11 4-8 7-5 10-3 12-2-1v-13l4-11 7-8 9-6z"/><path fill="#AB4A2D" d="m933 343 3 1v25l-4 8-8 10h-1v-41l9-2z"/><path fill="#C8602E" d="M808 296h16l8 4 6 5v2h2l5 9-1 4-4-6v-2l-4-2-8-5-8-2-10 1-10 4-7 7-5 10-2 7-2-4 1-9 5-10 5-6 10-6z"/><path fill="#AB4A2D" d="m547 344 13 4 1 39-7-6-7-10z"/><path fill="#C85E2E" d="m893 272 4 1h-3l1 67 5 1 15 1 1-4v16l-8 3-10 2-5-1z"/><path fill="#CF632E" d="M584 272h4v72l-1 14-18-2-1-1v-17h1v5l5-1h13l-1-67 1-2z"/><path fill="#FDFDFD" d="M655 325h7l5 3 2 4v8l-6 6h-8l-5-3-2-5 1-8zM804 325l7 1 5 5v9l-4 5-7 2-6-3-3-5v-6l4-6z"/><path fill="#C85E2E" d="M540 317h1v43l-2-2-2-6-1-7v-13z"/><path fill="#C75E2E" d="M795 303h4l7 1-4 3-8 7-5 8-3 10-2-4 1-9 5-10z"/><path fill="#C65D2E" d="m941 318 2 3 2 7 1 8v10l-3 14h-1l-1-8z"/><path fill="#CC622E" d="m670 296 9 1 9 6 6 8 1 5-5-5-9-6-7-2h-12v-2l10-1 5-1-4-1h-7z"/><path fill="#DC7730" d="M810 297h12l3 1 4 2v2l-3 1h-11l-15 2-1-3 8-4z"/><path fill="#DA7330" d="M664 295h6v2l7 1 1 2-6 1h-10v2l-7-1-3-2 6-1 1-3z"/><path fill="#CD632E" d="M655 297h3v2l-3 2 5 2-3 2-8 5h-4l-1-4 4-5z"/><path fill="#D0642F" d="M923 320h1l1 21 1 2h2v-2h5l1-10h1v13l-7 2h-5zM547 341h11l2 2v5l-8-1-5-3z"/><path fill="#D1662F" d="M808 296h16v3l-8-1-9 1-6 3h-2l-1 3v-4z"/><path fill="#AB4A2D" d="M941 339h1l1 5h1l1 8-2 8h-1l-1-8z"/><path fill="#FDFDFD" d="m875 511 6 2 5 3-1 4-10-7z"/><path fill="#E17C31" d="M665 297h10l3 3-6 1h-8z"/><path fill="#C65D2E" d="m862 661 2 1-14 7-4 1-1-4h6l6-4z"/>
    <path fill="#D66E2F" d="m647 302 4 2h-2l1 3-1 3h-4l-1-4z"/>
    <path fill="#C25A2E" d="M820 495h2l-3 15-2 2 2-16z"/>
    <path fill="#AB4A2D" d="m537 347 2 4 2-2v11l-2-2-2-6z"/>
</svg>